<svg xmlns="http://www.w3.org/2000/svg" width="300" height="300" viewBox="0 0 300 300">
  <g id="Group_261" data-name="Group 261" transform="translate(-412.5 -1068)">
    <g id="Group_255" data-name="Group 255">
      <rect id="Rectangle_2048" data-name="Rectangle 2048" width="300" height="300" rx="60" transform="translate(412.5 1068)" fill="#410099"/>
    </g>
    <g id="Group_258" data-name="Group 258">
      <g id="Group_256" data-name="Group 256">
        <path id="Path_132" data-name="Path 132" d="M480.312,1184.759a69.1,69.1,0,0,1,76.15-17.847,70.326,70.326,0,0,1,20.582,12.77c4.116,3.626,9.187-3.207,5.1-6.8-23.829-21-59.426-25.319-87.42-10.086a79.831,79.831,0,0,0-21.22,16.862c-3.669,4.075,3.168,9.142,6.8,5.1Z" fill="#fff"/>
      </g>
      <g id="Group_257" data-name="Group 257">
        <path id="Path_133" data-name="Path 133" d="M644.688,1251.241a69.1,69.1,0,0,1-76.15,17.847,70.326,70.326,0,0,1-20.582-12.77c-4.116-3.626-9.187,3.207-5.1,6.8,23.829,21,59.426,25.319,87.42,10.086a79.831,79.831,0,0,0,21.22-16.862c3.669-4.075-3.168-9.142-6.8-5.1Z" fill="#fff"/>
      </g>
      <path id="Path_134" data-name="Path 134" d="M466.239,1237.073a15.436,15.436,0,0,0,6.039-1.342c1.678-.738,3.691.268,3.288,1.745a5.9,5.9,0,0,1-4.294,3.624,32.024,32.024,0,0,1-6.576.67c-11.676-.335-14.562-6.576-14.7-14.964a26.437,26.437,0,0,1,5.9-15.97,20.7,20.7,0,0,1,16.037-7.65c7.181,0,10.8,3.557,10.8,8.187a13.872,13.872,0,0,1-2.415,6.777,18.14,18.14,0,0,1-6.912,5.5c-4.227,2.147-8.723,2.416-13.823,2.617a14.393,14.393,0,0,0-.134,2.416C459.462,1231.906,460.4,1237.14,466.239,1237.073Zm-6.375-12.682c3.691-.537,7.583-2.953,10.938-6.107a9.457,9.457,0,0,0,2.751-6.642c0-2.886-1.409-4.228-3.087-4.228-1.006,0-3.288.469-6.173,3.825C462.213,1213.721,460.4,1218.821,459.864,1224.391Z" fill="#fff"/>
      <path id="Path_135" data-name="Path 135" d="M506.1,1217.211a58.425,58.425,0,0,0,3.154-8.254c.671-2.147,3.154-3.556,6.107-3.556,2.214,0,3.959,1.812,3.086,3.221s-1.677,2.751-2.684,4.495c-3.288,5.838-3.69,6.576-8.79,16.977l-2.013,4.026c-1.074,2.013-1.677,3.289-2.214,4.429-1.007,2.013-3.825,3.221-6.778,3.221-2.885,0-5.3-1.611-5.569-3.758-.2-1.744-.47-3.422-.738-5.166-.269-1.812-.6-3.759-.94-5.637s-.6-3.691-.94-5.5a1.8,1.8,0,0,0,0-.6,8.34,8.34,0,0,0-.268-.939c-.4-2.483-.537-3.153-1.341-6.978-.4-2.081-.739-3.49-1.008-4.563l.068.066c-.6-1.744,1.476-3.287,3.757-3.221H490.6c2.684-.066,4.7,1.611,4.764,3.624.067,1.343.2,3.288.537,6.107a170.816,170.816,0,0,0,2.55,17.714Z" fill="#fff"/>
      <path id="Path_136" data-name="Path 136" d="M533.679,1237.073a15.437,15.437,0,0,0,6.039-1.342c1.678-.738,3.691.268,3.288,1.745a5.9,5.9,0,0,1-4.294,3.624,32.024,32.024,0,0,1-6.576.67c-11.676-.335-14.562-6.576-14.7-14.964a26.437,26.437,0,0,1,5.9-15.97,20.7,20.7,0,0,1,16.038-7.65c7.18,0,10.8,3.557,10.8,8.187a13.872,13.872,0,0,1-2.415,6.777,18.141,18.141,0,0,1-6.912,5.5c-4.227,2.147-8.723,2.416-13.823,2.617a14.391,14.391,0,0,0-.134,2.416C526.9,1231.906,527.841,1237.14,533.679,1237.073Zm-6.375-12.682c3.691-.537,7.583-2.953,10.938-6.107a9.457,9.457,0,0,0,2.751-6.642c0-2.886-1.409-4.228-3.087-4.228-1.006,0-3.288.469-6.173,3.825C529.653,1213.721,527.841,1218.821,527.3,1224.391Z" fill="#fff"/>
      <path id="Path_137" data-name="Path 137" d="M553.341,1218.148a57.253,57.253,0,0,0,1.006-8.656v-.4a3.374,3.374,0,0,1,3.221-3.556,18.116,18.116,0,0,0,1.879-.269c.067,0,.268-.066.336-.066,2.147-.269,4.428,1.14,4.227,2.751-.134.805.2-.6-.134,1.074a11.372,11.372,0,0,1,1.275-1.276,16.552,16.552,0,0,1,10.132-3.355c4.228,0,9.932,1.476,9.932,7.113a36.045,36.045,0,0,1-.739,5.77c-.268,1.41-.537,3.155-.8,4.7-.268,1.611-.6,3.086-.872,4.63a116.387,116.387,0,0,0-1.678,11.675c-.134,2.013-2.483,3.49-5.1,3.49h-.6c-2.215.068-4.228-1.477-3.758-3.153a84.68,84.68,0,0,0,2.415-11.81l.806-4.429a47.971,47.971,0,0,0,1.006-7.852c0-3.221-1.006-4.562-3.959-4.562-2.55,0-5.636,2.079-7.583,4.495-2.08,2.685-2.885,7.65-3.489,11.274l-1.208,7.851a43.906,43.906,0,0,0-.537,4.831c-.134,1.946-2.549,3.288-5.1,3.288h-.537c-2.282.067-4.227-1.543-3.892-3.086a68.269,68.269,0,0,0,1.61-7.919Z" fill="#fff"/>
      <path id="Path_138" data-name="Path 138" d="M602.864,1203.589c.335,0,.671-.068,1.006-.068.873,0,1.678,0,2.349-.067,2.013-.2,3.623,1.141,3.355,2.483-.4,1.477-2.349,2.416-4.563,2.416-1.275-.068-2.349-.068-3.288-.068-.067.337-.135.538-.2.94-.336,1.611-.739,3.624-1.141,5.636-.336,1.812-.738,3.825-1.074,5.637-.268,1.544-.6,2.953-.8,3.96a47.855,47.855,0,0,0-1.275,8.454c0,2.483,1.074,3.49,2.55,3.49a5.932,5.932,0,0,0,1.409-.2c1.812-.268,3.557.873,3.355,2.013a5.191,5.191,0,0,1-4.563,3.489,14.967,14.967,0,0,1-1.744.068c-4.5,0-7.382-1.276-8.388-2.684a7.066,7.066,0,0,1-1.544-4.026,28.332,28.332,0,0,1,.6-4.63l4.228-22.279c-1.342-.268-2.416-1.207-2.215-2.281a3.065,3.065,0,0,1,3.221-2.416,42.867,42.867,0,0,0,.6-4.428c.2-2.148,2.215-4.026,5.1-4.7,2.348-.47,4.832.806,4.361,2.55a45.61,45.61,0,0,0-1.543,6.711Z" fill="#fff"/>
      <path id="Path_139" data-name="Path 139" d="M623.464,1237.073a15.446,15.446,0,0,0,6.04-1.342c1.677-.738,3.69.268,3.288,1.745a5.9,5.9,0,0,1-4.295,3.624,32.025,32.025,0,0,1-6.576.67c-11.676-.335-14.561-6.576-14.7-14.964a26.437,26.437,0,0,1,5.905-15.97,20.7,20.7,0,0,1,16.038-7.65c7.18,0,10.8,3.557,10.8,8.187a13.872,13.872,0,0,1-2.415,6.777,18.133,18.133,0,0,1-6.912,5.5c-4.227,2.147-8.723,2.416-13.823,2.617a14.4,14.4,0,0,0-.134,2.416C616.687,1231.906,617.626,1237.14,623.464,1237.073Zm-6.374-12.682c3.69-.537,7.582-2.953,10.937-6.107a9.453,9.453,0,0,0,2.752-6.642c0-2.886-1.41-4.228-3.087-4.228-1.007,0-3.288.469-6.174,3.825C619.438,1213.721,617.626,1218.821,617.09,1224.391Z" fill="#fff"/>
      <path id="Path_140" data-name="Path 140" d="M643.126,1218.148a57.126,57.126,0,0,0,1.007-8.656v-.4a3.373,3.373,0,0,1,3.221-3.556,18.113,18.113,0,0,0,1.879-.269c.066,0,.268-.066.335-.066,2.147-.269,4.429,1.14,4.227,2.751-.134.805.2-.6-.134,1.074a11.539,11.539,0,0,1,1.275-1.276,16.553,16.553,0,0,1,10.133-3.355c4.227,0,9.931,1.476,9.931,7.113a36.128,36.128,0,0,1-.738,5.77c-.269,1.41-.537,3.155-.805,4.7-.269,1.611-.6,3.086-.873,4.63a116.37,116.37,0,0,0-1.678,11.675c-.134,2.013-2.482,3.49-5.1,3.49h-.6c-2.215.068-4.227-1.477-3.758-3.153a84.781,84.781,0,0,0,2.416-11.81l.8-4.429a47.99,47.99,0,0,0,1.007-7.852c0-3.221-1.007-4.562-3.96-4.562-2.549,0-5.636,2.079-7.582,4.495-2.08,2.685-2.885,7.65-3.489,11.274l-1.208,7.851a43.431,43.431,0,0,0-.537,4.831c-.134,1.946-2.55,3.288-5.1,3.288h-.537c-2.281.067-4.227-1.543-3.892-3.086a68.271,68.271,0,0,0,1.611-7.919Z" fill="#fff"/>
      <path id="Path_141" data-name="Path 141" d="M667.285,1185.791a.57.57,0,0,1-.524.447.358.358,0,0,1-.369-.447l.678-3.914h-1.264a.291.291,0,0,1-.308-.37.457.457,0,0,1,.431-.385h3.39a.319.319,0,0,1,.324.385.474.474,0,0,1-.447.37h-1.233Zm6.981.015a.514.514,0,0,1-.509.432.344.344,0,0,1-.354-.432l.508-2.742c.077-.447.17-.817.216-1.033-.123.293-.139.339-.385.863l-1.464,2.974a.667.667,0,0,1-.57.37.425.425,0,0,1-.447-.37l-.416-2.974c-.015-.123-.031-.2-.108-.847-.031.338-.077.77-.108,1.017l-.462,2.742a.512.512,0,0,1-.509.432.357.357,0,0,1-.354-.432l.724-4.068a.768.768,0,0,1,.709-.616.675.675,0,0,1,.694.586l.493,3.451,1.664-3.451a1.058,1.058,0,0,1,.894-.586.5.5,0,0,1,.508.616Z" fill="#fff"/>
    </g>
  </g>
</svg>
