<svg xmlns="http://www.w3.org/2000/svg" width="259.233" height="259.234" viewBox="0 0 259.233 259.234">
  <g id="Icon_calendar" data-name="Icon calendar" transform="translate(-5139.5 -805.507)">
    <g id="Icon_calendar-2" data-name="Icon calendar-2">
      <path id="Path-63" d="M5197.107,906.32a14.4,14.4,0,1,1,14.4,14.4A14.4,14.4,0,0,1,5197.107,906.32Z" fill="#a5e5d9"/>
      <path id="Path-64" d="M5197.107,963.928a14.4,14.4,0,1,1,14.4,14.4A14.4,14.4,0,0,1,5197.107,963.928Z" fill="#a5e5d9"/>
      <path id="Path-65" d="M5269.117,891.918a14.4,14.4,0,1,0,14.4,14.4A14.4,14.4,0,0,0,5269.117,891.918Z" fill="#a5e5d9"/>
      <path id="Path-66" d="M5312.322,906.32a14.4,14.4,0,1,1,14.4,14.4A14.4,14.4,0,0,1,5312.322,906.32Z" fill="#a5e5d9"/>
      <path id="Shape-27" d="M5369.93,1064.741H5168.3a28.8,28.8,0,0,1-28.8-28.8V863.114a28.8,28.8,0,0,1,28.8-28.8h28.8v-14.4a14.4,14.4,0,0,1,28.8,0v14.4h86.411v-14.4a14.4,14.4,0,0,1,28.8,0v14.4h28.8a28.8,28.8,0,0,1,28.8,28.8v172.823A28.8,28.8,0,0,1,5369.93,1064.741ZM5182.706,863.114a14.4,14.4,0,0,0-14.4,14.4v144.019a14.4,14.4,0,0,0,14.4,14.4h172.822a14.4,14.4,0,0,0,14.4-14.4V877.516a14.4,14.4,0,0,0-14.4-14.4Z" fill="#a5e5d9"/>
    </g>
  </g>
</svg>
